<?xml version="1.0" encoding="UTF-8" standalone="no"?>
<svg width="28px" height="28px" viewBox="0 0 28 28" version="1.1" xmlns="http://www.w3.org/2000/svg" xmlns:xlink="http://www.w3.org/1999/xlink">
    <g id="Page-1" stroke="none" stroke-width="1" fill="none" fill-rule="evenodd">
        <path d="M5.01226751,15.6509695 L5.01226751,4.24482258 L7.87125709,4.24482258 L7.87125709,8.34586466 L12.1274238,8.34586466 L12.1274238,4.24482258 L14.9877325,4.24482258 L14.9877325,15.6509695 L12.1274238,15.6509695 L12.1274238,10.8452711 L7.87125709,10.8452711 L7.87125709,15.6509695 L5.01226751,15.6509695 L5.01226751,15.6509695 L5.01226751,15.6509695 Z M10,0 C15.5227543,0 20,4.45402981 20,9.94802796 C20,15.4420261 15.5227543,19.8957921 10,19.8957921 C4.47698193,19.8957921 0,15.4420261 0,9.94802796 C0,4.45402981 4.47698193,0 10,0 L10,0 L10,0 Z" id="hactar-h" fill="#828282"></path>
    </g>
</svg>
