<?xml version="1.0" encoding="UTF-8" standalone="no"?>
<svg width="16px" height="12px" viewBox="0 0 16 12" version="1.1" xmlns="http://www.w3.org/2000/svg" xmlns:xlink="http://www.w3.org/1999/xlink">
    <g id="Page-1" stroke="none" stroke-width="1" fill="none" fill-rule="evenodd">
        <g id="email-icon" fill="#FFAF00">
            <path d="M0,1 L0,1 L1,0 L1,12 L0,11 L16,11 L15,12 L15,0 L16,1 L0,1 Z M0,0 L16,0 L16,12 L0,12 L0,0 L0,0 Z" id="Rectangle-1"></path>
            <path d="M15.0562731,0.879346826 L16,4.4408921e-16 L14.6653687,4.4408921e-16 L1.39763131,4.4408921e-16 L0.063,4.4408921e-16 L1.00672685,0.879346826 L7.64059554,7.06066016 L8.03150014,7.06066036 L8.42240446,7.06066016 L15.0562731,0.879346826 Z M7.64059554,6.3321854 L8.42240446,6.3321854 L1.78853577,0.150872063 L1.39763131,1.03021889 L14.6653687,1.03021889 L14.2744642,0.150872063 L7.64059554,6.3321854 L7.64059554,6.3321854 Z" id="Triangle-1"></path>
            <polygon id="Line" points="6.85355339 5.85355339 7.20710678 5.5 6.5 4.79289322 6.14644661 5.14644661 0.146446609 11.1464466 0.146446609 11.4834822 0.494642842 11.8535536 0.853553391 11.8535534"></polygon>
            <polygon id="Line" points="9.85355339 5.14644661 9.5 4.79289322 8.79289322 5.5 9.14644661 5.85355339 15.1464466 11.8535534 15.5213168 11.8535536 15.8535536 11.5370534 15.8535534 11.1464466"></polygon>
        </g>
    </g>
</svg>
