<?xml version="1.0" encoding="UTF-8" standalone="no"?>
<svg width="817px" height="1039px" viewBox="0 0 817 1039" version="1.1" xmlns="http://www.w3.org/2000/svg" xmlns:xlink="http://www.w3.org/1999/xlink" xmlns:sketch="http://www.bohemiancoding.com/sketch/ns">
    <!-- Generator: Sketch 3.4.4 (17249) - http://www.bohemiancoding.com/sketch -->
    <title>logo_hactar</title>
    <desc>Created with Sketch.</desc>
    <defs>
        <path d="M192.46,594.81 L192.46,162.46 L300.83,162.46 L300.83,317.91 L462.16,317.91 L462.16,162.46 L570.58,162.46 L570.58,594.81 L462.16,594.81 L462.16,412.65 L300.83,412.65 L300.83,594.81 L192.46,594.81 L192.46,594.81 Z M381.52,1.56 C590.86,1.56 760.57,170.39 760.57,378.64 C760.57,586.89 590.86,755.71 381.52,755.71 C172.17,755.71 2.47,586.89 2.47,378.64 C2.47,170.39 172.17,1.56 381.52,1.56 L381.52,1.56 Z" id="path-1"></path>
        <path d="M192.46,594.81 L192.46,162.46 L300.83,162.46 L300.83,317.91 L462.16,317.91 L462.16,162.46 L570.58,162.46 L570.58,594.81 L462.16,594.81 L462.16,412.65 L300.83,412.65 L300.83,594.81 L192.46,594.81 L192.46,594.81 Z M381.52,1.56 C590.86,1.56 760.57,170.39 760.57,378.64 C760.57,586.89 590.86,755.71 381.52,755.71 C172.17,755.71 2.47,586.89 2.47,378.64 C2.47,170.39 172.17,1.56 381.52,1.56 L381.52,1.56 Z" id="path-3"></path>
        <path id="path-5" d="M0.6,1.56 L817,1.56 L817,1040 L0.6,1040"></path>
    </defs>
    <g id="Page-1" stroke="none" stroke-width="1" fill="none" fill-rule="evenodd" sketch:type="MSPage">
        <g id="logo_hactar" sketch:type="MSLayerGroup" transform="translate(0.000000, -1.000000)">
            <path d="M212.46,594.81 L212.46,162.46 L320.83,162.46 L320.83,317.91 L482.16,317.91 L482.16,162.46 L590.58,162.46 L590.58,594.81 L482.16,594.81 L482.16,412.65 L320.83,412.65 L320.83,594.81 L212.46,594.81 L212.46,594.81 Z M401.52,1.56 C610.86,1.56 780.57,170.39 780.57,378.64 C780.57,586.89 610.86,755.71 401.52,755.71 C192.17,755.71 22.47,586.89 22.47,378.64 C22.47,170.39 192.17,1.56 401.52,1.56 L401.52,1.56 Z" id="Fill-1" fill="#EA852C" sketch:type="MSShapeGroup"></path>
            <g id="Group-4" transform="translate(20.000000, 0.000000)">
                <mask id="mask-2" sketch:name="Clip 3" fill="white">
                    <use xlink:href="#path-1"></use>
                </mask>
                <g id="Clip-3"></g>
                <path d="M2.47,1.56 L760.56,1.56 L760.56,755.71 L2.47,755.71 L2.47,1.56 Z" id="Fill-2" fill="#EA852C" sketch:type="MSShapeGroup" mask="url(#mask-2)"></path>
            </g>
            <g id="Group-7" transform="translate(20.000000, 0.000000)">
                <mask id="mask-4" sketch:name="Clip 6" fill="white">
                    <use xlink:href="#path-3"></use>
                </mask>
                <g id="Clip-6"></g>
                <path d="M2.2,0.8 L760.6,0.8 L760.6,756.8 L2.2,756.8 L2.2,0.8 Z" id="Fill-5" fill="#F5A623" sketch:type="MSShapeGroup" mask="url(#mask-4)"></path>
            </g>
            <g id="Group-10">
                <mask id="mask-6" sketch:name="Clip 9" fill="white">
                    <use xlink:href="#path-5"></use>
                </mask>
                <g id="Clip-9"></g>
                <path d="M112.84,841.29 L112.84,922.2 L38.56,922.2 L38.56,841.29 L0,841.29 L0,1037.2 L38.56,1037.2 L38.56,957.41 L112.84,957.41 L112.84,1037.2 L151.96,1037.2 L151.96,841.29 L112.84,841.29" id="Fill-8" fill="#F5A623" sketch:type="MSShapeGroup" mask="url(#mask-6)"></path>
            </g>
            <path d="M241.18,1003.97 C224.15,1003.97 206.56,991.33 206.56,970.19 C206.56,949.04 224.15,936.4 241.18,936.4 C257.83,936.4 275.51,948.25 275.51,970.19 C275.51,992.37 258.24,1003.97 241.18,1003.97 L241.18,1003.97 Z M275.51,903.44 L275.51,916.7 C265.41,904.93 248.59,900.65 236.42,900.65 C203.38,900.65 168.28,925.02 168.28,970.19 C168.28,1015.35 203.38,1039.72 236.42,1039.72 C249.55,1039.72 266.31,1034.15 275.51,1023.45 L275.51,1037.2 L312.68,1037.2 L312.68,903.44 L275.51,903.44 L275.51,903.44 Z" id="Fill-11" fill="#F5A623" sketch:type="MSShapeGroup"></path>
            <path d="M428.33,990.49 L427.44,991.7 C421.68,999.55 411.98,1004.25 401.49,1004.25 C384.2,1004.25 366.32,991.4 366.32,969.91 C366.32,948.33 384.44,936.69 401.49,936.69 C412.11,936.69 421.81,941.27 427.44,948.95 L428.34,950.17 L457.92,927.92 L457,926.72 C444.63,910.39 423.88,900.65 401.49,900.65 C360.41,900.65 329.42,930.42 329.42,969.91 C329.42,1009.87 360.41,1040 401.49,1040 C423.91,1040 444.77,1030.15 457.29,1013.65 L458.21,1012.44 L428.33,990.49" id="Fill-12" fill="#F5A623" sketch:type="MSShapeGroup"></path>
            <path d="M525.54,902.82 L525.54,852.98 L488.66,852.98 L488.66,902.82 L464.86,902.82 L464.86,933.26 L488.66,933.26 L488.66,1036.58 L525.54,1036.58 L525.54,933.26 L553.26,933.26 L553.26,902.82 L525.54,902.82" id="Fill-13" fill="#F5A623" sketch:type="MSShapeGroup"></path>
            <path d="M628.01,1003.97 C610.99,1003.97 593.39,991.33 593.39,970.19 C593.39,949.04 610.99,936.4 628.01,936.4 C644.66,936.4 662.34,948.25 662.34,970.19 C662.34,992.37 645.07,1003.97 628.01,1003.97 L628.01,1003.97 Z M662.34,903.44 L662.34,916.7 C652.25,904.93 635.42,900.65 623.25,900.65 C590.22,900.65 555.11,925.02 555.11,970.19 C555.11,1015.35 590.22,1039.72 623.25,1039.72 C636.39,1039.72 653.14,1034.15 662.34,1023.45 L662.34,1037.2 L699.51,1037.2 L699.51,903.44 L662.34,903.44 L662.34,903.44 Z" id="Fill-14" fill="#F5A623" sketch:type="MSShapeGroup"></path>
            <path d="M816.03,905.58 C809.81,902.31 802.33,900.65 793.77,900.65 C778.29,900.65 765.46,910.33 758.31,926.98 L758.31,903.44 L721.14,903.44 L721.14,1037.2 L758.31,1037.2 L758.31,989.5 C758.31,953.21 768.54,935.56 789.57,935.56 C792.99,935.56 801.01,935.56 808.83,939.08 L810.56,939.85 L817,906.1 L816.03,905.58" id="Fill-15" fill="#F5A623" sketch:type="MSShapeGroup"></path>
        </g>
    </g>
</svg>