<?xml version="1.0" standalone="no"?><!DOCTYPE svg PUBLIC "-//W3C//DTD SVG 1.1//EN" "http://www.w3.org/Graphics/SVG/1.1/DTD/svg11.dtd"><svg width="100%" height="100%" viewBox="0 0 1792 1792" version="1.1" xmlns="http://www.w3.org/2000/svg" xmlns:xlink="http://www.w3.org/1999/xlink" xml:space="preserve" style="fill-rule:evenodd;clip-rule:evenodd;stroke-linejoin:round;stroke-miterlimit:1.41421;"><path d="M1722.22,384.775c-46.816,68.477 -103.414,126.822 -169.794,175.035c0.699,9.782 1.048,24.456 1.048,44.021c0,90.836 -13.276,181.497 -39.828,271.984c-26.552,90.487 -66.904,177.306 -121.057,260.456c-54.152,83.15 -118.611,156.692 -193.376,220.627c-74.765,63.935 -164.903,114.943 -270.413,153.024c-105.509,38.081 -218.356,57.122 -338.539,57.122c-189.359,0 -362.646,-50.659 -519.863,-151.976c24.456,2.795 51.707,4.192 81.753,4.192c157.216,0 297.314,-48.213 420.292,-144.639c-73.368,-1.397 -139.049,-23.932 -197.045,-67.603c-57.995,-43.671 -97.824,-99.396 -119.485,-167.174c23.059,3.494 44.371,5.241 63.935,5.241c30.046,0 59.743,-3.843 89.09,-11.529c-78.259,-16.071 -143.067,-55.026 -194.425,-116.864c-51.357,-61.839 -77.036,-133.635 -77.036,-215.387l0,-4.193c47.514,26.553 98.522,40.877 153.024,42.973c-46.117,-30.745 -82.801,-70.922 -110.051,-120.533c-27.251,-49.61 -40.877,-103.413 -40.877,-161.409c0,-61.489 15.373,-118.436 46.117,-170.842c84.548,104.113 187.437,187.437 308.669,249.975c121.231,62.537 251.022,97.299 389.373,104.287c-5.59,-26.553 -8.385,-52.406 -8.385,-77.561c0,-93.631 33.015,-173.462 99.046,-239.493c66.031,-66.031 145.862,-99.046 239.493,-99.046c97.824,0 180.275,35.635 247.354,106.907c76.163,-14.674 147.784,-41.924 214.863,-81.753c-25.853,80.355 -75.464,142.543 -148.832,186.564c64.983,-6.987 129.966,-24.456 194.949,-52.406Z" style="fill:#c87c7c;fill-rule:nonzero;"/></svg>