<?xml version="1.0" standalone="no"?><!DOCTYPE svg PUBLIC "-//W3C//DTD SVG 1.1//EN" "http://www.w3.org/Graphics/SVG/1.1/DTD/svg11.dtd"><svg width="100%" height="100%" viewBox="0 0 596 842" version="1.1" xmlns="http://www.w3.org/2000/svg" xmlns:xlink="http://www.w3.org/1999/xlink" xml:space="preserve" style="fill-rule:evenodd;clip-rule:evenodd;stroke-linejoin:round;stroke-miterlimit:1.41421;"><clipPath id="_clip1"><path d="M149.297,448.583l0,-313.88l78.677,0l0,112.85l117.126,0l0,-112.85l78.713,0l0,313.88l-78.713,0l0,-132.248l-117.126,0l0,132.248l-78.677,0ZM286.555,17.882c151.981,0 275.191,122.571 275.191,273.761c0,151.19 -123.21,273.754 -275.191,273.754c-151.989,0 -275.192,-122.564 -275.192,-273.754c0,-151.19 123.203,-273.761 275.192,-273.761Z"/></clipPath><g clip-path="url(#_clip1)"><rect x="-64.894" y="-58.375" width="702.897" height="700.029" style="fill:#3a3d49;fill-rule:nonzero;"/></g><clipPath id="_clip2"><path d="M175.825,745.633c-12.357,0 -25.134,-9.177 -25.134,-24.524c0,-15.355 12.777,-24.525 25.134,-24.525c12.088,0 24.931,8.596 24.931,24.525c0,16.103 -12.545,24.524 -24.931,24.524ZM200.756,672.655l0,9.62c-7.333,-8.538 -19.551,-11.652 -28.387,-11.652c-23.98,0 -49.47,17.692 -49.47,50.486c0,32.793 25.49,50.486 49.47,50.486c9.54,0 21.708,-4.044 28.387,-11.819l0,9.99l26.978,0l0,-97.111l-26.978,0Z"/></clipPath><g clip-path="url(#_clip2)"><rect x="46.642" y="594.366" width="257.349" height="253.487" style="fill:#3a3d49;fill-rule:nonzero;"/></g><clipPath id="_clip3"><path d="M311.7,735.845l-0.646,0.879c-4.182,5.706 -11.224,9.111 -18.84,9.111c-12.553,0 -25.534,-9.329 -25.534,-24.931c0,-15.667 13.156,-24.118 25.534,-24.118c7.71,0 14.752,3.333 18.84,8.908l0.653,0.886l21.475,-16.161l-0.668,-0.871c-8.98,-11.848 -24.045,-18.927 -40.3,-18.927c-29.824,0 -52.323,21.62 -52.323,50.283c0,29.011 22.499,50.893 52.323,50.893c16.277,0 31.421,-7.151 40.511,-19.13l0.668,-0.886l-21.693,-15.936Z"/></clipPath><g clip-path="url(#_clip3)"><rect x="163.634" y="594.364" width="246.016" height="253.69" style="fill:#3a3d49;fill-rule:nonzero;"/></g><clipPath id="_clip4"><path d="M382.275,672.199l0,-36.184l-26.775,0l0,36.184l-17.279,0l0,22.1l17.279,0l0,75.011l26.775,0l0,-75.011l20.124,0l0,-22.1l-20.124,0Z"/></clipPath><g clip-path="url(#_clip4)"><rect x="261.964" y="559.758" width="216.693" height="285.808" style="fill:#3a3d49;fill-rule:nonzero;"/></g><clipPath id="_clip5"><path d="M456.666,745.633c-12.357,0 -25.134,-9.177 -25.134,-24.524c0,-15.355 12.777,-24.525 25.134,-24.525c12.088,0 24.931,8.596 24.931,24.525c0,16.103 -12.546,24.524 -24.931,24.524ZM481.597,672.655l0,9.62c-7.333,-8.538 -19.551,-11.652 -28.387,-11.652c-23.98,0 -49.47,17.692 -49.47,50.486c0,32.793 25.49,50.486 49.47,50.486c9.54,0 21.708,-4.044 28.387,-11.819l0,9.99l26.978,0l0,-97.111l-26.978,0Z"/></clipPath><g clip-path="url(#_clip5)"><rect x="327.483" y="594.366" width="257.349" height="253.487" style="fill:#3a3d49;fill-rule:nonzero;"/></g><clipPath id="_clip6"><path d="M593.168,674.202c-4.509,-2.374 -9.939,-3.579 -16.161,-3.579c-11.232,0 -20.553,7.028 -25.737,19.116l0,-17.083l-26.986,0l0,97.11l26.986,0l0,-34.63c0,-26.354 7.42,-39.161 22.688,-39.161c2.482,0 8.305,0 13.982,2.549l1.256,0.559l4.683,-24.503l-0.711,-0.378Z"/></clipPath><g clip-path="url(#_clip6)"><rect x="448.027" y="594.366" width="222.109" height="251.657" style="fill:#3a3d49;fill-rule:nonzero;"/></g><clipPath id="_clip7"><path d="M82.654,627.523l0,58.749l-53.927,0l0,-58.749l-27.995,0l0,142.239l27.995,0l0,-57.935l53.927,0l0,57.935l28.401,0l0,-142.239l-28.401,0Z"/></clipPath><g clip-path="url(#_clip7)"><rect x="-75.525" y="551.266" width="262.837" height="294.752" style="fill:#3a3d49;fill-rule:nonzero;"/></g></svg>